<svg xmlns="http://www.w3.org/2000/svg" xmlns:xlink="http://www.w3.org/1999/xlink" preserveAspectRatio="xMidYMid" width="18" height="18" viewBox="0 0 18 18">
  <path d="M18.353,17.646 L17.646,18.353 L13.286,13.993 C11.876,15.238 10.029,16.000 8.000,16.000 C3.582,16.000 -0.000,12.418 -0.000,8.000 C-0.000,3.582 3.582,-0.000 8.000,-0.000 C12.418,-0.000 16.000,3.582 16.000,8.000 C16.000,10.029 15.238,11.876 13.993,13.286 L18.353,17.646 ZM8.000,1.000 C4.134,1.000 1.000,4.134 1.000,8.000 C1.000,11.866 4.134,15.000 8.000,15.000 C11.866,15.000 15.000,11.866 15.000,8.000 C15.000,4.134 11.866,1.000 8.000,1.000 Z" class="cls-1"/>
</svg>
